<mxfile host="app.diagrams.net" modified="2023-12-21T16:58:53.521Z" agent="Mozilla/5.0 (Windows NT 10.0; Win64; x64) AppleWebKit/537.36 (KHTML, like Gecko) Chrome/120.0.0.0 Safari/537.36 Edg/120.0.0.0" etag="FpBbi0LSLF-hXZQflT_3" version="22.1.11" type="device">
  <diagram name="Страница — 1" id="ZZ2EfaBm7a6IDFJKJsze">
    <mxGraphModel dx="1080" dy="641" grid="1" gridSize="10" guides="1" tooltips="1" connect="1" arrows="1" fold="1" page="1" pageScale="1" pageWidth="827" pageHeight="1169" math="0" shadow="0">
      <root>
        <mxCell id="0" />
        <mxCell id="1" parent="0" />
        <mxCell id="qhTMZGh4AH9Fs-Bt4C3k-4" value="" style="edgeStyle=orthogonalEdgeStyle;rounded=0;orthogonalLoop=1;jettySize=auto;html=1;" parent="1" source="qhTMZGh4AH9Fs-Bt4C3k-1" target="qhTMZGh4AH9Fs-Bt4C3k-5" edge="1">
          <mxGeometry relative="1" as="geometry">
            <mxPoint x="360" y="170" as="targetPoint" />
          </mxGeometry>
        </mxCell>
        <mxCell id="qhTMZGh4AH9Fs-Bt4C3k-1" value="stok(char *s,&lt;br&gt;char *delim)" style="strokeWidth=1;html=1;shape=mxgraph.flowchart.terminator;whiteSpace=wrap;" parent="1" vertex="1">
          <mxGeometry x="300" y="50" width="120" height="60" as="geometry" />
        </mxCell>
        <mxCell id="gV_0Cxts8DzmQKQQi6Z_-28" style="edgeStyle=orthogonalEdgeStyle;rounded=0;orthogonalLoop=1;jettySize=auto;html=1;" parent="1" source="qhTMZGh4AH9Fs-Bt4C3k-5" edge="1">
          <mxGeometry relative="1" as="geometry">
            <mxPoint x="500" y="200" as="targetPoint" />
          </mxGeometry>
        </mxCell>
        <mxCell id="qhTMZGh4AH9Fs-Bt4C3k-5" value="s != NULL?" style="rhombus;whiteSpace=wrap;html=1;" parent="1" vertex="1">
          <mxGeometry x="290" y="160" width="140" height="80" as="geometry" />
        </mxCell>
        <mxCell id="qhTMZGh4AH9Fs-Bt4C3k-15" value="да" style="text;html=1;strokeColor=none;fillColor=none;align=center;verticalAlign=middle;whiteSpace=wrap;rounded=0;" parent="1" vertex="1">
          <mxGeometry x="412" y="170" width="60" height="30" as="geometry" />
        </mxCell>
        <mxCell id="qhTMZGh4AH9Fs-Bt4C3k-16" value="нет" style="text;html=1;strokeColor=none;fillColor=none;align=center;verticalAlign=middle;whiteSpace=wrap;rounded=0;" parent="1" vertex="1">
          <mxGeometry x="316" y="229" width="60" height="30" as="geometry" />
        </mxCell>
        <mxCell id="qhTMZGh4AH9Fs-Bt4C3k-43" value="&lt;font style=&quot;font-size: 24px;&quot;&gt;1&lt;/font&gt;" style="text;html=1;strokeColor=none;fillColor=none;align=center;verticalAlign=middle;whiteSpace=wrap;rounded=0;" parent="1" vertex="1">
          <mxGeometry x="330" y="10" width="60" height="30" as="geometry" />
        </mxCell>
        <mxCell id="qhTMZGh4AH9Fs-Bt4C3k-44" value="&lt;font style=&quot;font-size: 24px;&quot;&gt;2&lt;/font&gt;" style="text;html=1;strokeColor=none;fillColor=none;align=center;verticalAlign=middle;whiteSpace=wrap;rounded=0;" parent="1" vertex="1">
          <mxGeometry x="530" y="10" width="60" height="30" as="geometry" />
        </mxCell>
        <mxCell id="qhTMZGh4AH9Fs-Bt4C3k-46" value="&lt;font style=&quot;font-size: 24px;&quot;&gt;A&lt;/font&gt;" style="text;html=1;strokeColor=none;fillColor=none;align=center;verticalAlign=middle;whiteSpace=wrap;rounded=0;" parent="1" vertex="1">
          <mxGeometry x="170" y="65" width="60" height="30" as="geometry" />
        </mxCell>
        <mxCell id="qhTMZGh4AH9Fs-Bt4C3k-47" value="&lt;font style=&quot;font-size: 24px;&quot;&gt;B&lt;/font&gt;" style="text;html=1;strokeColor=none;fillColor=none;align=center;verticalAlign=middle;whiteSpace=wrap;rounded=0;" parent="1" vertex="1">
          <mxGeometry x="170" y="185" width="60" height="30" as="geometry" />
        </mxCell>
        <mxCell id="qhTMZGh4AH9Fs-Bt4C3k-48" value="&lt;font style=&quot;font-size: 24px;&quot;&gt;C&lt;/font&gt;" style="text;html=1;strokeColor=none;fillColor=none;align=center;verticalAlign=middle;whiteSpace=wrap;rounded=0;" parent="1" vertex="1">
          <mxGeometry x="170" y="305" width="60" height="30" as="geometry" />
        </mxCell>
        <mxCell id="qhTMZGh4AH9Fs-Bt4C3k-49" value="&lt;font style=&quot;font-size: 24px;&quot;&gt;D&lt;/font&gt;" style="text;html=1;strokeColor=none;fillColor=none;align=center;verticalAlign=middle;whiteSpace=wrap;rounded=0;" parent="1" vertex="1">
          <mxGeometry x="170" y="425" width="60" height="30" as="geometry" />
        </mxCell>
        <mxCell id="gV_0Cxts8DzmQKQQi6Z_-32" style="edgeStyle=orthogonalEdgeStyle;rounded=0;orthogonalLoop=1;jettySize=auto;html=1;entryX=0.5;entryY=0;entryDx=0;entryDy=0;entryPerimeter=0;" parent="1" source="qhTMZGh4AH9Fs-Bt4C3k-5" edge="1">
          <mxGeometry relative="1" as="geometry">
            <mxPoint x="360" y="290" as="targetPoint" />
          </mxGeometry>
        </mxCell>
        <mxCell id="gV_0Cxts8DzmQKQQi6Z_-37" style="edgeStyle=orthogonalEdgeStyle;rounded=0;orthogonalLoop=1;jettySize=auto;html=1;" parent="1" source="gV_0Cxts8DzmQKQQi6Z_-35" edge="1">
          <mxGeometry relative="1" as="geometry">
            <Array as="points">
              <mxPoint x="560" y="260" />
              <mxPoint x="360" y="260" />
            </Array>
            <mxPoint x="360" y="290" as="targetPoint" />
          </mxGeometry>
        </mxCell>
        <mxCell id="gV_0Cxts8DzmQKQQi6Z_-35" value="s2 = s" style="rounded=0;whiteSpace=wrap;html=1;" parent="1" vertex="1">
          <mxGeometry x="500" y="170" width="120" height="60" as="geometry" />
        </mxCell>
        <mxCell id="gV_0Cxts8DzmQKQQi6Z_-40" value="" style="edgeStyle=orthogonalEdgeStyle;rounded=0;orthogonalLoop=1;jettySize=auto;html=1;" parent="1" target="gV_0Cxts8DzmQKQQi6Z_-38" edge="1">
          <mxGeometry relative="1" as="geometry">
            <mxPoint x="360" y="350" as="sourcePoint" />
          </mxGeometry>
        </mxCell>
        <mxCell id="gV_0Cxts8DzmQKQQi6Z_-41" value="" style="edgeStyle=orthogonalEdgeStyle;rounded=0;orthogonalLoop=1;jettySize=auto;html=1;" parent="1" source="gV_0Cxts8DzmQKQQi6Z_-38" target="gV_0Cxts8DzmQKQQi6Z_-39" edge="1">
          <mxGeometry relative="1" as="geometry" />
        </mxCell>
        <mxCell id="gV_0Cxts8DzmQKQQi6Z_-73" style="edgeStyle=orthogonalEdgeStyle;rounded=0;orthogonalLoop=1;jettySize=auto;html=1;" parent="1" source="gV_0Cxts8DzmQKQQi6Z_-38" target="gV_0Cxts8DzmQKQQi6Z_-72" edge="1">
          <mxGeometry relative="1" as="geometry">
            <Array as="points">
              <mxPoint x="360" y="500" />
              <mxPoint x="260" y="500" />
              <mxPoint x="260" y="1100" />
              <mxPoint x="360" y="1100" />
            </Array>
          </mxGeometry>
        </mxCell>
        <mxCell id="gV_0Cxts8DzmQKQQi6Z_-38" value="s2 != NULL and&lt;br&gt;*s2 != &#39;\0&#39;?" style="rhombus;whiteSpace=wrap;html=1;" parent="1" vertex="1">
          <mxGeometry x="290" y="400" width="140" height="80" as="geometry" />
        </mxCell>
        <mxCell id="gV_0Cxts8DzmQKQQi6Z_-43" value="" style="edgeStyle=orthogonalEdgeStyle;rounded=0;orthogonalLoop=1;jettySize=auto;html=1;" parent="1" source="gV_0Cxts8DzmQKQQi6Z_-39" target="gV_0Cxts8DzmQKQQi6Z_-42" edge="1">
          <mxGeometry relative="1" as="geometry" />
        </mxCell>
        <mxCell id="gV_0Cxts8DzmQKQQi6Z_-39" value="j = 0" style="rounded=0;whiteSpace=wrap;html=1;" parent="1" vertex="1">
          <mxGeometry x="500" y="410" width="120" height="60" as="geometry" />
        </mxCell>
        <mxCell id="gV_0Cxts8DzmQKQQi6Z_-46" value="" style="edgeStyle=orthogonalEdgeStyle;rounded=0;orthogonalLoop=1;jettySize=auto;html=1;" parent="1" source="gV_0Cxts8DzmQKQQi6Z_-42" target="gV_0Cxts8DzmQKQQi6Z_-45" edge="1">
          <mxGeometry relative="1" as="geometry" />
        </mxCell>
        <mxCell id="gV_0Cxts8DzmQKQQi6Z_-70" style="edgeStyle=orthogonalEdgeStyle;rounded=0;orthogonalLoop=1;jettySize=auto;html=1;" parent="1" source="gV_0Cxts8DzmQKQQi6Z_-42" target="gV_0Cxts8DzmQKQQi6Z_-56" edge="1">
          <mxGeometry relative="1" as="geometry">
            <Array as="points">
              <mxPoint x="560" y="620" />
              <mxPoint x="360" y="620" />
            </Array>
          </mxGeometry>
        </mxCell>
        <mxCell id="gV_0Cxts8DzmQKQQi6Z_-42" value="j &amp;lt; del_amm?" style="rhombus;whiteSpace=wrap;html=1;" parent="1" vertex="1">
          <mxGeometry x="490" y="520" width="140" height="80" as="geometry" />
        </mxCell>
        <mxCell id="gV_0Cxts8DzmQKQQi6Z_-48" value="" style="edgeStyle=orthogonalEdgeStyle;rounded=0;orthogonalLoop=1;jettySize=auto;html=1;" parent="1" source="gV_0Cxts8DzmQKQQi6Z_-45" target="gV_0Cxts8DzmQKQQi6Z_-47" edge="1">
          <mxGeometry relative="1" as="geometry" />
        </mxCell>
        <mxCell id="gV_0Cxts8DzmQKQQi6Z_-52" style="edgeStyle=orthogonalEdgeStyle;rounded=0;orthogonalLoop=1;jettySize=auto;html=1;" parent="1" source="gV_0Cxts8DzmQKQQi6Z_-45" edge="1">
          <mxGeometry relative="1" as="geometry">
            <mxPoint x="560" y="500" as="targetPoint" />
            <Array as="points">
              <mxPoint x="760" y="500" />
              <mxPoint x="560" y="500" />
            </Array>
          </mxGeometry>
        </mxCell>
        <mxCell id="gV_0Cxts8DzmQKQQi6Z_-45" value="*s2 == delim[j]?" style="rhombus;whiteSpace=wrap;html=1;" parent="1" vertex="1">
          <mxGeometry x="690" y="520" width="140" height="80" as="geometry" />
        </mxCell>
        <mxCell id="gV_0Cxts8DzmQKQQi6Z_-53" style="edgeStyle=orthogonalEdgeStyle;rounded=0;orthogonalLoop=1;jettySize=auto;html=1;" parent="1" source="gV_0Cxts8DzmQKQQi6Z_-47" edge="1">
          <mxGeometry relative="1" as="geometry">
            <mxPoint x="760" y="499.9999999999999" as="targetPoint" />
            <Array as="points">
              <mxPoint x="960" y="500" />
            </Array>
          </mxGeometry>
        </mxCell>
        <mxCell id="gV_0Cxts8DzmQKQQi6Z_-47" value="fl = 0" style="rounded=0;whiteSpace=wrap;html=1;" parent="1" vertex="1">
          <mxGeometry x="900" y="530" width="120" height="60" as="geometry" />
        </mxCell>
        <mxCell id="gV_0Cxts8DzmQKQQi6Z_-49" value="&lt;font style=&quot;font-size: 24px;&quot;&gt;3&lt;/font&gt;" style="text;html=1;strokeColor=none;fillColor=none;align=center;verticalAlign=middle;whiteSpace=wrap;rounded=0;" parent="1" vertex="1">
          <mxGeometry x="730" y="10" width="60" height="30" as="geometry" />
        </mxCell>
        <mxCell id="gV_0Cxts8DzmQKQQi6Z_-50" value="&lt;font style=&quot;font-size: 24px;&quot;&gt;4&lt;/font&gt;" style="text;html=1;strokeColor=none;fillColor=none;align=center;verticalAlign=middle;whiteSpace=wrap;rounded=0;" parent="1" vertex="1">
          <mxGeometry x="930" y="10" width="60" height="30" as="geometry" />
        </mxCell>
        <mxCell id="gV_0Cxts8DzmQKQQi6Z_-59" value="" style="edgeStyle=orthogonalEdgeStyle;rounded=0;orthogonalLoop=1;jettySize=auto;html=1;" parent="1" source="gV_0Cxts8DzmQKQQi6Z_-56" target="gV_0Cxts8DzmQKQQi6Z_-58" edge="1">
          <mxGeometry relative="1" as="geometry" />
        </mxCell>
        <mxCell id="gV_0Cxts8DzmQKQQi6Z_-66" style="edgeStyle=orthogonalEdgeStyle;rounded=0;orthogonalLoop=1;jettySize=auto;html=1;" parent="1" source="gV_0Cxts8DzmQKQQi6Z_-56" target="gV_0Cxts8DzmQKQQi6Z_-65" edge="1">
          <mxGeometry relative="1" as="geometry">
            <Array as="points">
              <mxPoint x="360" y="920" />
            </Array>
          </mxGeometry>
        </mxCell>
        <mxCell id="gV_0Cxts8DzmQKQQi6Z_-56" value="fl2 == 0?" style="rhombus;whiteSpace=wrap;html=1;" parent="1" vertex="1">
          <mxGeometry x="290" y="640" width="140" height="80" as="geometry" />
        </mxCell>
        <mxCell id="gV_0Cxts8DzmQKQQi6Z_-61" value="" style="edgeStyle=orthogonalEdgeStyle;rounded=0;orthogonalLoop=1;jettySize=auto;html=1;" parent="1" source="gV_0Cxts8DzmQKQQi6Z_-58" target="gV_0Cxts8DzmQKQQi6Z_-60" edge="1">
          <mxGeometry relative="1" as="geometry" />
        </mxCell>
        <mxCell id="gV_0Cxts8DzmQKQQi6Z_-64" style="edgeStyle=orthogonalEdgeStyle;rounded=0;orthogonalLoop=1;jettySize=auto;html=1;" parent="1" source="gV_0Cxts8DzmQKQQi6Z_-58" target="gV_0Cxts8DzmQKQQi6Z_-63" edge="1">
          <mxGeometry relative="1" as="geometry">
            <Array as="points">
              <mxPoint x="560" y="800" />
            </Array>
          </mxGeometry>
        </mxCell>
        <mxCell id="gV_0Cxts8DzmQKQQi6Z_-58" value="fl == 0?" style="rhombus;whiteSpace=wrap;html=1;" parent="1" vertex="1">
          <mxGeometry x="490" y="640" width="140" height="80" as="geometry" />
        </mxCell>
        <mxCell id="WYR2GEivCc48zSFBZd3z-1" style="edgeStyle=orthogonalEdgeStyle;rounded=0;orthogonalLoop=1;jettySize=auto;html=1;entryX=0;entryY=0.5;entryDx=0;entryDy=0;" edge="1" parent="1" source="gV_0Cxts8DzmQKQQi6Z_-60" target="gV_0Cxts8DzmQKQQi6Z_-67">
          <mxGeometry relative="1" as="geometry" />
        </mxCell>
        <mxCell id="gV_0Cxts8DzmQKQQi6Z_-60" value="*s2 = &#39;\0&#39;&lt;br&gt;fl = 1" style="rounded=0;whiteSpace=wrap;html=1;" parent="1" vertex="1">
          <mxGeometry x="700" y="650" width="120" height="60" as="geometry" />
        </mxCell>
        <mxCell id="WYR2GEivCc48zSFBZd3z-2" style="edgeStyle=orthogonalEdgeStyle;rounded=0;orthogonalLoop=1;jettySize=auto;html=1;" edge="1" parent="1" source="gV_0Cxts8DzmQKQQi6Z_-63" target="gV_0Cxts8DzmQKQQi6Z_-67">
          <mxGeometry relative="1" as="geometry" />
        </mxCell>
        <mxCell id="gV_0Cxts8DzmQKQQi6Z_-63" value="fl2 = 1&lt;br&gt;token = s2" style="rounded=0;whiteSpace=wrap;html=1;" parent="1" vertex="1">
          <mxGeometry x="700" y="770" width="120" height="60" as="geometry" />
        </mxCell>
        <mxCell id="gV_0Cxts8DzmQKQQi6Z_-81" style="edgeStyle=orthogonalEdgeStyle;rounded=0;orthogonalLoop=1;jettySize=auto;html=1;" parent="1" source="gV_0Cxts8DzmQKQQi6Z_-65" target="gV_0Cxts8DzmQKQQi6Z_-76" edge="1">
          <mxGeometry relative="1" as="geometry">
            <Array as="points">
              <mxPoint x="840" y="920" />
              <mxPoint x="840" y="1400" />
            </Array>
          </mxGeometry>
        </mxCell>
        <mxCell id="gV_0Cxts8DzmQKQQi6Z_-65" value="*s2 = &#39;\0&#39;&lt;br&gt;s2 += 1&lt;br&gt;ret = token" style="rounded=0;whiteSpace=wrap;html=1;" parent="1" vertex="1">
          <mxGeometry x="700" y="890" width="120" height="60" as="geometry" />
        </mxCell>
        <mxCell id="gV_0Cxts8DzmQKQQi6Z_-71" style="edgeStyle=orthogonalEdgeStyle;rounded=0;orthogonalLoop=1;jettySize=auto;html=1;" parent="1" source="gV_0Cxts8DzmQKQQi6Z_-67" target="gV_0Cxts8DzmQKQQi6Z_-38" edge="1">
          <mxGeometry relative="1" as="geometry">
            <Array as="points">
              <mxPoint x="1040" y="740" />
              <mxPoint x="1040" y="380" />
              <mxPoint x="360" y="380" />
            </Array>
          </mxGeometry>
        </mxCell>
        <mxCell id="gV_0Cxts8DzmQKQQi6Z_-67" value="s2 += 1" style="rounded=0;whiteSpace=wrap;html=1;" parent="1" vertex="1">
          <mxGeometry x="900" y="710" width="120" height="60" as="geometry" />
        </mxCell>
        <mxCell id="gV_0Cxts8DzmQKQQi6Z_-77" value="" style="edgeStyle=orthogonalEdgeStyle;rounded=0;orthogonalLoop=1;jettySize=auto;html=1;" parent="1" source="gV_0Cxts8DzmQKQQi6Z_-72" target="gV_0Cxts8DzmQKQQi6Z_-75" edge="1">
          <mxGeometry relative="1" as="geometry" />
        </mxCell>
        <mxCell id="gV_0Cxts8DzmQKQQi6Z_-79" value="" style="edgeStyle=orthogonalEdgeStyle;rounded=0;orthogonalLoop=1;jettySize=auto;html=1;" parent="1" source="gV_0Cxts8DzmQKQQi6Z_-72" target="gV_0Cxts8DzmQKQQi6Z_-74" edge="1">
          <mxGeometry relative="1" as="geometry" />
        </mxCell>
        <mxCell id="gV_0Cxts8DzmQKQQi6Z_-72" value="s2 != NULL?" style="rhombus;whiteSpace=wrap;html=1;" parent="1" vertex="1">
          <mxGeometry x="290" y="1120" width="140" height="80" as="geometry" />
        </mxCell>
        <mxCell id="gV_0Cxts8DzmQKQQi6Z_-80" style="edgeStyle=orthogonalEdgeStyle;rounded=0;orthogonalLoop=1;jettySize=auto;html=1;" parent="1" source="gV_0Cxts8DzmQKQQi6Z_-74" target="gV_0Cxts8DzmQKQQi6Z_-76" edge="1">
          <mxGeometry relative="1" as="geometry">
            <Array as="points">
              <mxPoint x="560" y="1400" />
            </Array>
          </mxGeometry>
        </mxCell>
        <mxCell id="gV_0Cxts8DzmQKQQi6Z_-74" value="s2 = NULL&lt;br&gt;ret = token" style="rounded=0;whiteSpace=wrap;html=1;" parent="1" vertex="1">
          <mxGeometry x="500" y="1130" width="120" height="60" as="geometry" />
        </mxCell>
        <mxCell id="gV_0Cxts8DzmQKQQi6Z_-78" value="" style="edgeStyle=orthogonalEdgeStyle;rounded=0;orthogonalLoop=1;jettySize=auto;html=1;" parent="1" source="gV_0Cxts8DzmQKQQi6Z_-75" target="gV_0Cxts8DzmQKQQi6Z_-76" edge="1">
          <mxGeometry relative="1" as="geometry" />
        </mxCell>
        <mxCell id="gV_0Cxts8DzmQKQQi6Z_-75" value="ret = NULL" style="rounded=0;whiteSpace=wrap;html=1;" parent="1" vertex="1">
          <mxGeometry x="300" y="1250" width="120" height="60" as="geometry" />
        </mxCell>
        <mxCell id="gV_0Cxts8DzmQKQQi6Z_-76" value="return ret" style="strokeWidth=1;html=1;shape=mxgraph.flowchart.terminator;whiteSpace=wrap;" parent="1" vertex="1">
          <mxGeometry x="300" y="1370" width="120" height="60" as="geometry" />
        </mxCell>
        <mxCell id="gV_0Cxts8DzmQKQQi6Z_-82" value="да" style="text;html=1;strokeColor=none;fillColor=none;align=center;verticalAlign=middle;whiteSpace=wrap;rounded=0;" parent="1" vertex="1">
          <mxGeometry x="412" y="410" width="60" height="30" as="geometry" />
        </mxCell>
        <mxCell id="gV_0Cxts8DzmQKQQi6Z_-83" value="нет" style="text;html=1;strokeColor=none;fillColor=none;align=center;verticalAlign=middle;whiteSpace=wrap;rounded=0;" parent="1" vertex="1">
          <mxGeometry x="314" y="472" width="60" height="30" as="geometry" />
        </mxCell>
        <mxCell id="gV_0Cxts8DzmQKQQi6Z_-84" value="да" style="text;html=1;strokeColor=none;fillColor=none;align=center;verticalAlign=middle;whiteSpace=wrap;rounded=0;" parent="1" vertex="1">
          <mxGeometry x="600" y="530" width="60" height="30" as="geometry" />
        </mxCell>
        <mxCell id="gV_0Cxts8DzmQKQQi6Z_-87" value="нет" style="text;html=1;strokeColor=none;fillColor=none;align=center;verticalAlign=middle;whiteSpace=wrap;rounded=0;" parent="1" vertex="1">
          <mxGeometry x="553" y="589" width="60" height="30" as="geometry" />
        </mxCell>
        <mxCell id="gV_0Cxts8DzmQKQQi6Z_-88" value="нет" style="text;html=1;strokeColor=none;fillColor=none;align=center;verticalAlign=middle;whiteSpace=wrap;rounded=0;" parent="1" vertex="1">
          <mxGeometry x="710" y="497" width="60" height="30" as="geometry" />
        </mxCell>
        <mxCell id="gV_0Cxts8DzmQKQQi6Z_-89" value="да" style="text;html=1;strokeColor=none;fillColor=none;align=center;verticalAlign=middle;whiteSpace=wrap;rounded=0;" parent="1" vertex="1">
          <mxGeometry x="804" y="530" width="60" height="30" as="geometry" />
        </mxCell>
        <mxCell id="gV_0Cxts8DzmQKQQi6Z_-90" value="нет" style="text;html=1;strokeColor=none;fillColor=none;align=center;verticalAlign=middle;whiteSpace=wrap;rounded=0;" parent="1" vertex="1">
          <mxGeometry x="553" y="710" width="60" height="30" as="geometry" />
        </mxCell>
        <mxCell id="gV_0Cxts8DzmQKQQi6Z_-91" value="нет" style="text;html=1;strokeColor=none;fillColor=none;align=center;verticalAlign=middle;whiteSpace=wrap;rounded=0;" parent="1" vertex="1">
          <mxGeometry x="354" y="710" width="60" height="30" as="geometry" />
        </mxCell>
        <mxCell id="gV_0Cxts8DzmQKQQi6Z_-93" value="да" style="text;html=1;strokeColor=none;fillColor=none;align=center;verticalAlign=middle;whiteSpace=wrap;rounded=0;" parent="1" vertex="1">
          <mxGeometry x="603" y="650" width="60" height="30" as="geometry" />
        </mxCell>
        <mxCell id="gV_0Cxts8DzmQKQQi6Z_-94" value="да" style="text;html=1;strokeColor=none;fillColor=none;align=center;verticalAlign=middle;whiteSpace=wrap;rounded=0;" parent="1" vertex="1">
          <mxGeometry x="403" y="650" width="60" height="30" as="geometry" />
        </mxCell>
        <mxCell id="gV_0Cxts8DzmQKQQi6Z_-95" value="нет" style="text;html=1;strokeColor=none;fillColor=none;align=center;verticalAlign=middle;whiteSpace=wrap;rounded=0;" parent="1" vertex="1">
          <mxGeometry x="352" y="1190" width="60" height="30" as="geometry" />
        </mxCell>
        <mxCell id="gV_0Cxts8DzmQKQQi6Z_-96" value="да" style="text;html=1;strokeColor=none;fillColor=none;align=center;verticalAlign=middle;whiteSpace=wrap;rounded=0;" parent="1" vertex="1">
          <mxGeometry x="403" y="1130" width="60" height="30" as="geometry" />
        </mxCell>
        <mxCell id="gV_0Cxts8DzmQKQQi6Z_-97" value="&lt;font style=&quot;font-size: 24px;&quot;&gt;E&lt;/font&gt;" style="text;html=1;strokeColor=none;fillColor=none;align=center;verticalAlign=middle;whiteSpace=wrap;rounded=0;" parent="1" vertex="1">
          <mxGeometry x="170" y="545" width="60" height="30" as="geometry" />
        </mxCell>
        <mxCell id="gV_0Cxts8DzmQKQQi6Z_-98" value="&lt;font style=&quot;font-size: 24px;&quot;&gt;F&lt;/font&gt;" style="text;html=1;strokeColor=none;fillColor=none;align=center;verticalAlign=middle;whiteSpace=wrap;rounded=0;" parent="1" vertex="1">
          <mxGeometry x="170" y="665" width="60" height="30" as="geometry" />
        </mxCell>
        <mxCell id="gV_0Cxts8DzmQKQQi6Z_-99" value="&lt;font style=&quot;font-size: 24px;&quot;&gt;G&lt;/font&gt;" style="text;html=1;strokeColor=none;fillColor=none;align=center;verticalAlign=middle;whiteSpace=wrap;rounded=0;" parent="1" vertex="1">
          <mxGeometry x="170" y="785" width="60" height="30" as="geometry" />
        </mxCell>
        <mxCell id="gV_0Cxts8DzmQKQQi6Z_-100" value="&lt;font style=&quot;font-size: 24px;&quot;&gt;H&lt;/font&gt;" style="text;html=1;strokeColor=none;fillColor=none;align=center;verticalAlign=middle;whiteSpace=wrap;rounded=0;" parent="1" vertex="1">
          <mxGeometry x="170" y="905" width="60" height="30" as="geometry" />
        </mxCell>
        <mxCell id="gV_0Cxts8DzmQKQQi6Z_-101" value="&lt;font style=&quot;font-size: 24px;&quot;&gt;I&lt;/font&gt;" style="text;html=1;strokeColor=none;fillColor=none;align=center;verticalAlign=middle;whiteSpace=wrap;rounded=0;" parent="1" vertex="1">
          <mxGeometry x="170" y="1025" width="60" height="30" as="geometry" />
        </mxCell>
        <mxCell id="gV_0Cxts8DzmQKQQi6Z_-102" value="&lt;font style=&quot;font-size: 24px;&quot;&gt;J&lt;/font&gt;" style="text;html=1;strokeColor=none;fillColor=none;align=center;verticalAlign=middle;whiteSpace=wrap;rounded=0;" parent="1" vertex="1">
          <mxGeometry x="170" y="1145" width="60" height="30" as="geometry" />
        </mxCell>
        <mxCell id="gV_0Cxts8DzmQKQQi6Z_-103" value="&lt;font style=&quot;font-size: 24px;&quot;&gt;K&lt;/font&gt;" style="text;html=1;strokeColor=none;fillColor=none;align=center;verticalAlign=middle;whiteSpace=wrap;rounded=0;" parent="1" vertex="1">
          <mxGeometry x="170" y="1260" width="60" height="30" as="geometry" />
        </mxCell>
        <mxCell id="gV_0Cxts8DzmQKQQi6Z_-104" value="&lt;font style=&quot;font-size: 24px;&quot;&gt;L&lt;/font&gt;" style="text;html=1;strokeColor=none;fillColor=none;align=center;verticalAlign=middle;whiteSpace=wrap;rounded=0;" parent="1" vertex="1">
          <mxGeometry x="170" y="1385" width="60" height="30" as="geometry" />
        </mxCell>
        <mxCell id="Pol4sldqIwX6eEo0Q33R-1" value="del_amm = slen(delim)&lt;br style=&quot;border-color: var(--border-color);&quot;&gt;fl = 1&lt;br style=&quot;border-color: var(--border-color);&quot;&gt;fl2 = 0" style="shape=process;whiteSpace=wrap;html=1;backgroundOutline=1;" parent="1" vertex="1">
          <mxGeometry x="300" y="290" width="120" height="60" as="geometry" />
        </mxCell>
      </root>
    </mxGraphModel>
  </diagram>
</mxfile>
